<?xml version="1.0" encoding="UTF-8"?>
<svg width="19px" height="22px" viewBox="0 0 19 22" version="1.1" xmlns="http://www.w3.org/2000/svg" xmlns:xlink="http://www.w3.org/1999/xlink">
    <title>846E4E00-3A17-4A20-97DD-68AFCB96236D</title>
    <g id="가이드" stroke="none" stroke-width="1" fill="none" fill-rule="evenodd">
        <g id=".." transform="translate(-617.000000, -1451.000000)" fill="#212223">
            <g id="Group-33" transform="translate(522.000000, 1410.000000)">
                <g id="icon/장바구니" transform="translate(93.000000, 40.000000)">
                    <path d="M11.5,21.7027857 L3.34670651,21.7027857 L4.39723768,7.94807143 L7.44987382,7.94807143 L9.20339796,7.94807143 L13.7958104,7.94807143 L15.5501262,7.94807143 L18.6027623,7.94807143 L19.6532935,21.7027857 L11.5,21.7027857 Z M9.55014449,2.99257143 C10.0758059,2.56592857 10.7384243,2.29878571 11.4691253,2.29878571 L11.5308747,2.29878571 C12.2314927,2.29878571 12.8703613,2.54392857 13.3857311,2.93992857 C14.1077239,3.49464286 14.5811359,4.35421429 14.5811359,5.3285 L14.5811359,6.65007143 L13.7958104,6.65007143 L9.20339796,6.65007143 L8.41807248,6.65007143 L8.41807248,5.3285 C8.41807248,4.38328571 8.86535967,3.54885714 9.55014449,2.99257143 L9.55014449,2.99257143 Z M19.8686247,7.37292857 C19.83775,6.96435714 19.5187115,6.65007143 19.1355487,6.65007143 L15.8873728,6.65007143 L15.8873728,5.3285 C15.8873728,4.43514286 15.6150422,3.60542857 15.1479635,2.91557143 C14.3658047,1.76057143 13.0374013,1 11.5308747,1 L11.4691253,1 C9.91984913,1 8.56294603,1.80614286 7.79028709,3.01692857 C7.36279136,3.68557143 7.1126272,4.47757143 7.1126272,5.3285 L7.1126272,6.65007143 L3.86445134,6.65007143 C3.4812885,6.65007143 3.16225002,6.96435714 3.13137533,7.37292857 L2.00246995,22.1498571 C1.96763697,22.6079286 2.30567525,23 2.73554596,23 L11.5,23 L20.264454,23 C20.6943247,23 21.032363,22.6079286 20.99753,22.1498571 L19.8686247,7.37292857 Z" id="Fill-6"></path>
                </g>
            </g>
        </g>
    </g>
</svg>