<svg width="25" height="26" viewBox="0 0 25 26" xmlns="http://www.w3.org/2000/svg" xmlns:xlink="http://www.w3.org/1999/xlink">
    <defs>
        <path id="a" d="M0 .026h24.973V24.52H0z"/>
    </defs>
    <g opacity=".7">
        <g opacity=".4" fill="none" fill-rule="evenodd">
            <g transform="translate(0 .03)">
                <mask id="b" fill="#fff">
                    <use xlink:href="#a"/>
                </mask>
                <path d="M22.063 16.236c-.553 1.26-1.292 2.344-2.219 3.253-.926.909-2.032 1.634-3.317 2.176a10.28 10.28 0 0 1-4.04.814c-1.41 0-2.756-.272-4.04-.814-1.285-.542-2.39-1.267-3.317-2.176a10.303 10.303 0 0 1-2.22-3.253 9.757 9.757 0 0 1-.829-3.963c0-1.382.277-2.703.83-3.963A10.3 10.3 0 0 1 5.13 5.057c.927-.908 2.032-1.634 3.317-2.176a10.288 10.288 0 0 1 4.04-.814c1.409 0 2.756.271 4.04.814 1.285.542 2.39 1.267 3.317 2.176a10.298 10.298 0 0 1 2.22 3.253c.552 1.26.829 2.581.829 3.963a9.75 9.75 0 0 1-.83 3.963M23.3 6.126a12.317 12.317 0 0 0-4.544-4.457C16.84.574 14.752.026 12.487.026c-2.265 0-4.355.548-6.268 1.643a12.314 12.314 0 0 0-4.544 4.457C.558 8.002 0 10.05 0 12.273c0 2.222.558 4.27 1.675 6.148a12.317 12.317 0 0 0 4.544 4.457c1.913 1.095 4.002 1.642 6.268 1.642 2.265 0 4.355-.548 6.268-1.642a12.317 12.317 0 0 0 4.544-4.457c1.116-1.877 1.674-3.926 1.674-6.148 0-2.222-.558-4.271-1.674-6.147" fill="#000" mask="url(#b)"/>
            </g>
            <path d="M17.771 13.881a1.039 1.039 0 0 0-.797.064.97.97 0 0 0-.52.606c-.27.85-.772 1.54-1.504 2.065a4.117 4.117 0 0 1-2.463.79 4.12 4.12 0 0 1-2.463-.79 3.968 3.968 0 0 1-1.504-2.065.977.977 0 0 0-.512-.606 1.017 1.017 0 0 0-.789-.064.987.987 0 0 0-.617.502.964.964 0 0 0-.065.774 5.89 5.89 0 0 0 2.243 3.11c1.095.786 2.33 1.18 3.707 1.18 1.377 0 2.613-.394 3.707-1.18a5.897 5.897 0 0 0 2.244-3.11.962.962 0 0 0-.065-.774.989.989 0 0 0-.602-.502M8.325 10.262c.574 0 1.065-.2 1.471-.598.407-.399.61-.88.61-1.443 0-.564-.203-1.045-.61-1.444a2.025 2.025 0 0 0-1.471-.598c-.575 0-1.065.2-1.472.598-.406.4-.61.88-.61 1.444 0 .563.204 1.044.61 1.443.407.398.897.598 1.472.598M16.65 6.18c-.575 0-1.066.199-1.473.597-.406.4-.61.88-.61 1.443 0 .564.204 1.045.61 1.444.407.398.898.598 1.472.598s1.065-.2 1.472-.598c.406-.399.61-.88.61-1.444 0-.563-.204-1.044-.61-1.443a2.026 2.026 0 0 0-1.472-.598" fill="#000"/>
        </g>
    </g>
</svg>
