<?xml version="1.0" encoding="UTF-8"?>
<svg width="22px" height="22px" viewBox="0 0 22 22" version="1.1" xmlns="http://www.w3.org/2000/svg" xmlns:xlink="http://www.w3.org/1999/xlink">
    <title>AB002587-2FA4-487F-8523-B8DC04F88648</title>
    <g id="가이드" stroke="none" stroke-width="1" fill="none" fill-rule="evenodd">
        <g id=".." transform="translate(-582.000000, -1412.000000)" fill="#212223">
            <g id="Group-33" transform="translate(522.000000, 1410.000000)">
                <g id="icon/검색" transform="translate(59.000000, 1.000000)">
                    <path d="M21.5225203,21.541104 C21.271093,21.7930834 20.8625236,21.7930834 20.6110963,21.541104 L16.7776156,17.6976314 L17.6890396,16.7842063 L21.5225203,20.6276789 C21.7739476,20.8796582 21.7739476,21.2899121 21.5225203,21.541104 M4.36260668,14.3927647 C1.59769203,11.6217793 1.59769203,7.11371119 4.36260668,4.34272574 C7.12673562,1.57252773 11.625713,1.57252773 14.3906276,4.34272574 C17.1555423,7.11371119 17.1555423,11.6217793 14.3906276,14.3927647 C11.625713,17.1629628 7.12673562,17.1629628 4.36260668,14.3927647 M22.43473,19.7142537 L18.2445368,15.5140729 C17.9381097,15.2061856 17.4407551,15.2061856 17.1335424,15.5140729 L16.7776156,15.8707811 L15.740478,14.8313663 C18.6538919,11.429645 18.404036,6.22548397 14.9909103,3.13243741 C11.8032835,0.244124081 6.76609458,0.296882258 3.63661034,3.24819043 C0.184199151,6.50423613 0.122128035,11.9706132 3.4511827,15.3061899 C6.55709563,18.4189223 11.5314277,18.5803466 14.829054,15.7455789 L15.8654059,16.7842063 L15.5094791,17.1409146 C15.2030521,17.4488018 15.2030521,17.9472485 15.5094791,18.2543483 L19.6179584,22.3742107 C20.3329548,23.090777 21.4997347,23.2309405 22.2838736,22.5907555 C23.185869,21.8545033 23.2353688,20.5166505 22.43473,19.7142537" id="Fill-1"></path>
                </g>
            </g>
        </g>
    </g>
</svg>