<?xml version="1.0" encoding="UTF-8"?>
<svg width="22px" height="22px" viewBox="0 0 22 22" version="1.1" xmlns="http://www.w3.org/2000/svg" xmlns:xlink="http://www.w3.org/1999/xlink">
    <title>365E0D1C-BC8E-41C0-9554-D11CB7A70B36</title>
    <g id="가이드" stroke="none" stroke-width="1" fill="none" fill-rule="evenodd">
        <g id=".." transform="translate(-582.000000, -1451.000000)" fill="#212223">
            <g id="Group-33" transform="translate(522.000000, 1410.000000)">
                <g id="icon/trash" transform="translate(59.000000, 40.000000)">
                    <g id="Group-11" transform="translate(0.999686, 1.000000)">
                        <path d="M18.4485207,6.00631429 L3.55273647,6.00631429 C3.32959042,6.00631429 3.15044501,6.19881429 3.15987371,6.4306 L3.73973914,21.1831714 C3.75781083,21.6396714 4.10353005,22.0003143 4.52467892,22.0003143 L17.4765782,22.0003143 C17.8969414,22.0003143 18.2434463,21.6396714 18.261518,21.1831714 L18.8413834,6.4306 C18.8500264,6.19881429 18.6716667,6.00631429 18.4485207,6.00631429 M17.5095787,7.30274286 L16.9823569,20.7038857 L5.01811454,20.7038857 L4.49167845,7.30274286 L17.5095787,7.30274286" id="Fill-1"></path>
                        <path d="M8.55584365,17.8976286 C8.19912427,17.8976286 7.90919156,17.6092714 7.90762011,17.2525571 L7.8761847,10.7602 C7.87461964,10.4027 8.1629809,10.1104143 8.52127173,10.1088429 L8.52441463,10.1088429 C8.88113402,10.1088429 9.17106673,10.3972 9.17263818,10.7539143 L9.20407359,17.2462714 C9.20563865,17.6037714 8.91727739,17.8960571 8.55898656,17.8976286 L8.55584365,17.8976286 Z" id="Fill-4"></path>
                        <path d="M13.4451778,17.8976286 L13.4420349,17.8976286 C13.0837441,17.8960571 12.7953828,17.6037714 12.7969478,17.2462714 L12.8283833,10.7539143 C12.8299547,10.3972 13.1198874,10.1088429 13.4766068,10.1088429 L13.4797497,10.1088429 C13.8380405,10.1104143 14.1264018,10.4027 14.1248367,10.7602 L14.0934013,17.2525571 C14.0918299,17.6092714 13.8018972,17.8976286 13.4451778,17.8976286" id="Fill-6"></path>
                        <path d="M7.35360505,3.1625 L8.53533622,1.2925 L13.436692,1.2925 L14.6207803,3.1625 L7.35360505,3.1625 Z M21.3544479,3.1625 L16.1380163,3.1625 L14.5304219,0.614428571 C14.3237761,0.234142857 13.940342,0 13.5215503,0 L8.45362077,0 C8.02382891,0 7.63096616,0.2475 7.45889227,0.593214286 L5.83794054,3.1625 L0.646652095,3.1625 C0.289932713,3.1625 0,3.45164286 0,3.80914286 C0,4.16585714 0.289932713,4.455 0.646652095,4.455 L5.02235746,4.455 L16.9528136,4.455 L21.3544479,4.455 C21.7111673,4.455 22.0003143,4.16585714 22.0003143,3.80914286 C22.0003143,3.45164286 21.7111673,3.1625 21.3544479,3.1625 L21.3544479,3.1625 Z" id="Fill-8"></path>
                    </g>
                </g>
            </g>
        </g>
    </g>
</svg>