<svg width="25" height="26" viewBox="0 0 25 26" xmlns="http://www.w3.org/2000/svg">
    <path d="M22.493 1.737c1.903 1.903 1.986 4.928.234 6.876l-.181.192-9.676 9.676c-1.403 1.403-3.695 1.386-5.118-.038-1.37-1.37-1.438-3.54-.194-4.952l.156-.166 6.643-6.643a.868.868 0 1 1 1.228 1.227L8.94 14.552c-.735.735-.726 1.936.02 2.681a1.9 1.9 0 0 0 2.547.142l.134-.122 9.676-9.676c1.27-1.27 1.254-3.342-.034-4.63-1.235-1.235-3.19-1.3-4.468-.187l-.163.152-12.579 12.58c-1.803 1.803-1.782 4.749.049 6.58 1.77 1.769 4.582 1.848 6.396.223l.184-.175 9.546-9.546a.868.868 0 0 1 1.228 1.228l-9.546 9.546c-2.472 2.472-6.509 2.442-9.018-.067-2.438-2.439-2.534-6.323-.267-8.808l.2-.21 12.58-12.579c1.937-1.937 5.101-1.913 7.067.053z" fill="#979797" fill-rule="nonzero" opacity=".7"/>
</svg>
